<svg width="57" height="55" viewBox="0 0 57 55" fill="none" xmlns="http://www.w3.org/2000/svg">
<path d="M28.1827 0C24.4817 0 20.817 0.728968 17.3977 2.14528C13.9784 3.5616 10.8715 5.63752 8.25453 8.25453C2.96924 13.5398 0 20.7082 0 28.1827C0 40.6395 8.08845 51.208 19.277 54.9563C20.6861 55.1818 21.1371 54.3081 21.1371 53.5472V48.7843C13.3304 50.4753 11.6677 45.0078 11.6677 45.0078C10.3712 41.7386 8.53937 40.865 8.53937 40.865C5.97474 39.1176 8.73665 39.174 8.73665 39.174C11.5549 39.3713 13.0486 42.0768 13.0486 42.0768C15.5005 46.3606 19.6434 45.0924 21.2498 44.416C21.5034 42.5841 22.2362 41.3441 23.0253 40.6395C16.7687 39.9349 10.2022 37.5112 10.2022 26.7736C10.2022 23.6453 11.2731 21.1371 13.105 19.1361C12.8231 18.4315 11.8368 15.5005 13.3868 11.6958C13.3868 11.6958 15.7542 10.9349 21.1371 14.5705C23.3635 13.9505 25.7872 13.6404 28.1827 13.6404C30.5783 13.6404 33.002 13.9505 35.2284 14.5705C40.6113 10.9349 42.9787 11.6958 42.9787 11.6958C44.5287 15.5005 43.5423 18.4315 43.2605 19.1361C45.0924 21.1371 46.1633 23.6453 46.1633 26.7736C46.1633 37.5394 39.5686 39.9068 33.2838 40.6113C34.2984 41.485 35.2284 43.2041 35.2284 45.8251V53.5472C35.2284 54.3081 35.6794 55.21 37.1167 54.9563C48.3052 51.1799 56.3655 40.6395 56.3655 28.1827C56.3655 24.4817 55.6365 20.817 54.2202 17.3977C52.8039 13.9784 50.728 10.8715 48.111 8.25453C45.4939 5.63752 42.3871 3.5616 38.9678 2.14528C35.5485 0.728968 31.8838 0 28.1827 0Z" fill="black"/>
</svg>
