<svg width="55" height="55" viewBox="0 0 55 55" fill="none" xmlns="http://www.w3.org/2000/svg">
<path d="M48.8889 0C50.5097 0 52.064 0.643847 53.2101 1.7899C54.3562 2.93596 55 4.49034 55 6.11111V48.8889C55 50.5097 54.3562 52.064 53.2101 53.2101C52.064 54.3562 50.5097 55 48.8889 55H6.11111C4.49034 55 2.93596 54.3562 1.7899 53.2101C0.643847 52.064 0 50.5097 0 48.8889V6.11111C0 4.49034 0.643847 2.93596 1.7899 1.7899C2.93596 0.643847 4.49034 0 6.11111 0H48.8889ZM47.3611 47.3611V31.1667C47.3611 28.5248 46.3116 25.9912 44.4436 24.1231C42.5755 22.255 40.0419 21.2056 37.4 21.2056C34.8028 21.2056 31.7778 22.7944 30.3111 25.1778V21.7861H21.7861V47.3611H30.3111V32.2972C30.3111 29.9444 32.2056 28.0194 34.5583 28.0194C35.6929 28.0194 36.7809 28.4701 37.5832 29.2724C38.3854 30.0746 38.8361 31.1627 38.8361 32.2972V47.3611H47.3611ZM11.8556 16.9889C13.217 16.9889 14.5227 16.4481 15.4854 15.4854C16.4481 14.5227 16.9889 13.217 16.9889 11.8556C16.9889 9.01389 14.6972 6.69167 11.8556 6.69167C10.486 6.69167 9.17255 7.23572 8.20413 8.20413C7.23572 9.17255 6.69167 10.486 6.69167 11.8556C6.69167 14.6972 9.01389 16.9889 11.8556 16.9889ZM16.1028 47.3611V21.7861H7.63889V47.3611H16.1028Z" fill="black"/>
</svg>
