<svg width="142" height="131" viewBox="0 0 142 131" fill="none" xmlns="http://www.w3.org/2000/svg">
<rect width="95" height="11" rx="3" transform="matrix(-1 0 0 1 142 85)" fill="#0B132B"/>
<rect width="95" height="11" rx="3" transform="matrix(-1 0 0 1 142 120)" fill="#0B132B"/>
<rect width="11" height="49" rx="3" transform="matrix(-1 0 0 1 58 0)" fill="#0B132B"/>
<rect width="11" height="66" rx="3" transform="matrix(-1 0 0 1 58 65)" fill="#0B132B"/>
<rect width="58" height="11" rx="3" transform="matrix(-1 0 0 1 58 0)" fill="#0B132B"/>
<rect width="58" height="11" rx="3" transform="matrix(-1 0 0 1 58 120)" fill="#0B132B"/>
<rect width="11" height="131" rx="3" transform="matrix(-1 0 0 1 11 0)" fill="#0B132B"/>
<rect width="11" height="46" rx="3" transform="matrix(-1 0 0 1 142 85)" fill="#0B132B"/>
<path d="M19 19V112H41V55L47 69V19H19Z" fill="#5BC0BE"/>
<path d="M58 97V46L70.5 76.5H71.5L95 19H123V85H101V55L78 112H64L58 97Z" fill="#5BC0BE"/>
<path d="M101 96H123V112H101V96Z" fill="#5BC0BE"/>
<path d="M47 19L58 46V97L47 69V19Z" fill="#336A75"/>
<path d="M101 96V85H123V96H101Z" fill="#336A75"/>
</svg>
